<!DOCTYPE svg PUBLIC "-//W3C//DTD SVG 1.1//EN" "http://www.w3.org/Graphics/SVG/1.1/DTD/svg11.dtd">
<!-- Uploaded to: SVG Repo, www.svgrepo.com, Transformed by: SVG Repo Mixer Tools -->
<svg fill="#ffffff" width="800px" height="800px" viewBox="0 0 24 24" xmlns="http://www.w3.org/2000/svg" stroke="#ffffff">
<g id="SVGRepo_bgCarrier" stroke-width="0"/>
<g id="SVGRepo_tracerCarrier" stroke-linecap="round" stroke-linejoin="round"/>
<g id="SVGRepo_iconCarrier"> <g data-name="Layer 2"> <g data-name="facebook"> <rect width="24" height="24" transform="rotate(180 12 12)" opacity="0"/> <path d="M17 3.5a.5.5 0 0 0-.5-.5H14a4.77 4.77 0 0 0-5 4.5v2.7H6.5a.5.5 0 0 0-.5.5v2.6a.5.5 0 0 0 .5.5H9v6.7a.5.5 0 0 0 .5.5h3a.5.5 0 0 0 .5-.5v-6.7h2.62a.5.5 0 0 0 .49-.37l.72-2.6a.5.5 0 0 0-.48-.63H13V7.5a1 1 0 0 1 1-.9h2.5a.5.5 0 0 0 .5-.5z"/> </g> </g> </g>
</svg>